<?xml version="1.0" encoding="UTF-8"?>
<svg version="1.1" xmlns="http://www.w3.org/2000/svg" width="1024" height="1024">
<path d="M0 0 C337.92 0 675.84 0 1024 0 C1024 337.92 1024 675.84 1024 1024 C686.08 1024 348.16 1024 0 1024 C0 686.08 0 348.16 0 0 Z " fill="#101619" transform="translate(0,0)"/>
<path d="M0 0 C46.86 0 93.72 0 142 0 C142 23.43 142 46.86 142 71 C127.48 71 112.96 71 98 71 C96.84160441 61.73283528 97 52.33928382 97 43 C71.755 43.495 71.755 43.495 46 44 C44.7164275 47.85071751 44.85711514 51.48789165 44.8671875 55.5 C44.86623077 56.33208984 44.86527405 57.16417969 44.86428833 58.02148438 C44.86360813 59.77994869 44.86545128 61.53841552 44.86962891 63.296875 C44.87497942 65.98964066 44.86967852 68.68223953 44.86328125 71.375 C44.86394206 73.0833337 44.86522328 74.7916673 44.8671875 76.5 C44.86516327 77.30630859 44.86313904 78.11261719 44.86105347 78.94335938 C44.87480468 82.2190477 44.95681388 84.87044163 46 88 C47.5179953 89.40043043 47.5179953 89.40043043 49.4296875 90.671875 C50.13730225 91.16792236 50.84491699 91.66396973 51.57397461 92.17504883 C52.33331299 92.69478271 53.09265137 93.2145166 53.875 93.75 C54.64787354 94.28713623 55.42074707 94.82427246 56.21704102 95.37768555 C61.25075087 98.85682876 66.3559992 102.20099426 71.546875 105.44140625 C74.82485038 107.52406895 77.98608265 109.7539026 81.15625 111.99609375 C89.70465182 118.01989888 98.33947936 123.91975356 107.0625 129.6875 C113.83860182 134.17321977 120.51685173 138.79675559 127.1875 143.4375 C128.19240479 144.13641357 129.19730957 144.83532715 130.23266602 145.55541992 C135.61110225 149.3057445 135.61110225 149.3057445 138 151 C138.69808147 151.43312406 139.39616295 151.86624811 140.11539841 152.31249714 C142 154 142 154 142.49219131 156.13390636 C142.48666056 157.37970958 142.48666056 157.37970958 142.48101807 158.65068054 C142.48651672 159.60560394 142.49201538 160.56052734 142.49768066 161.54438782 C142.47610901 163.11315926 142.47610901 163.11315926 142.45410156 164.71362305 C142.45468567 165.8162146 142.45526978 166.91880615 142.45587158 168.05480957 C142.45307987 171.7074304 142.42193518 175.35924009 142.390625 179.01171875 C142.38316651 181.54091445 142.37747173 184.07011592 142.37347412 186.59931946 C142.35975038 192.58113958 142.3282099 198.56261032 142.28807616 204.54429036 C142.24337575 211.35434624 142.22137584 218.16441603 142.20129442 224.97458208 C142.15947739 238.98321655 142.08911463 252.99159229 142 267 C140.22345367 267.05848355 138.44635698 267.10042914 136.66918945 267.13525391 C135.67965775 267.16036041 134.69012604 267.18546692 133.67060852 267.21133423 C131 267 131 267 128.29296875 264.8359375 C127.15794922 263.43214844 127.15794922 263.43214844 126 262 C123.5292647 260.07510019 120.91686278 258.363396 118.3125 256.625 C116.88253043 255.65796905 115.45284247 254.69052155 114.0234375 253.72265625 C113.3334668 253.25746582 112.64349609 252.79227539 111.93261719 252.31298828 C109.40875719 250.59831938 106.92263897 248.83268361 104.4375 247.0625 C101.80815753 245.21010848 99.19233578 243.4879801 96.375 241.9375 C95.26125 241.298125 94.1475 240.65875 93 240 C92.27167969 239.608125 91.54335938 239.21625 90.79296875 238.8125 C88.43140066 237.3566822 86.73363484 236.1747633 85 234 C84.30520881 230.09516578 84.60927869 227.00489342 85 223 C89.29 223 93.58 223 98 223 C98.25421452 216.36400552 98.40078848 209.73710881 98.45166016 203.09643555 C98.4836159 200.84291021 98.54400922 198.58958993 98.63427734 196.33764648 C99.55579379 184.03793902 99.55579379 184.03793902 95.43399048 172.90493774 C91.68558975 169.42554652 87.47807274 167.04548891 82.86499023 164.89123535 C80.47873409 163.75089917 78.3493981 162.32951149 76.1875 160.8125 C75.51460938 160.3690625 74.84171875 159.925625 74.1484375 159.46875 C70.58036681 157.02948713 67.13127053 154.42748765 63.67578125 151.83203125 C60.88848328 149.92364768 58.05056001 148.44265137 55 147 C55 146.34 55 145.68 55 145 C53.98512009 144.66221779 53.98512009 144.66221779 52.94973755 144.31761169 C49.18708173 142.63687935 46.12522939 140.33482305 42.80419922 137.91821289 C37.11025151 133.85541536 31.45916908 130.69323981 25.07470703 127.86108398 C14.99730678 123.11463419 3.15140853 117.31375337 -1.03071594 106.2808609 C-5.35991747 89.26140141 -3.09596669 70.25609104 -2.125 53.0625 C-1.42375 35.551875 -0.7225 18.04125 0 0 Z " fill="#20FAF4" transform="translate(370,384)"/>
<path d="M0 0 C14.19 0 28.38 0 43 0 C43 73.59 43 147.18 43 223 C59.83 223 76.66 223 94 223 C94 214.42 94 205.84 94 197 C108.19 197 122.38 197 137 197 C137 219.77 137 242.54 137 266 C132.76737557 266.70543741 129.45018892 267.11814448 125.26724243 267.08229065 C123.58886795 267.07173141 123.58886795 267.07173141 121.87658691 267.06095886 C120.66386108 267.04801285 119.45113525 267.03506683 118.20166016 267.02172852 C116.91331268 267.01212097 115.62496521 267.00251343 114.2975769 266.99261475 C110.77733248 266.96624538 107.25717426 266.93344366 103.73699617 266.89946485 C100.05348477 266.86501075 96.3699274 266.83650308 92.68637085 266.80735779 C85.71666827 266.75131156 78.74702326 266.68993714 71.77738321 266.62663645 C63.84030668 266.55480949 55.90318418 266.48894064 47.96605229 266.42356598 C31.64397438 266.28899506 15.321973 266.14675096 -1 266 C-1 259.4 -1 252.8 -1 246 C-1.66 246 -2.32 246 -3 246 C-2.814375 245.05125 -2.62875 244.1025 -2.4375 243.125 C-1.71313368 240.10131207 -1.71313368 240.10131207 -3 238 C-2.67 237.34 -2.34 236.68 -2 236 C-1.88566744 233.06173036 -1.83212923 230.14663187 -1.82299805 227.20751953 C-1.81642685 226.29681702 -1.80985565 225.3861145 -1.80308533 224.44781494 C-1.7833315 221.42614669 -1.77168611 218.40452814 -1.76171875 215.3828125 C-1.75764322 214.35257839 -1.7535677 213.32234428 -1.74936867 212.26089096 C-1.72850068 206.80983428 -1.71420118 201.35880285 -1.70483398 195.90771484 C-1.69375803 190.26934415 -1.65934641 184.63136686 -1.61966228 178.99313545 C-1.59355678 174.66432953 -1.58514763 170.33561829 -1.58155251 166.00674057 C-1.57667213 163.92786878 -1.56501715 161.84900162 -1.54651451 159.77020645 C-1.52224842 156.86357387 -1.52306497 153.95797172 -1.5300293 151.05126953 C-1.51721924 150.1898233 -1.50440918 149.32837708 -1.49121094 148.44082642 C-1.51427275 143.6086687 -1.51427275 143.6086687 -3.90437317 139.49679565 C-5.91936653 137.97534282 -5.91936653 137.97534282 -8 137 C-8 136.34 -8 135.68 -8 135 C-9.65 134.67 -11.3 134.34 -13 134 C-13 133.34 -13 132.68 -13 132 C-13.51691406 131.76410156 -14.03382813 131.52820313 -14.56640625 131.28515625 C-17.83892408 129.55697268 -20.87190613 127.50222736 -23.9375 125.4375 C-24.5977417 124.99494873 -25.2579834 124.55239746 -25.93823242 124.09643555 C-33.18473617 119.22637536 -40.36851189 114.26588553 -47.50390625 109.234375 C-53.06722127 105.31164217 -58.6989885 101.50822033 -64.39526367 97.78173828 C-68.3364054 95.18417891 -72.00978238 92.40305843 -75.6875 89.4375 C-80.57618857 85.77463185 -84.31832433 85.35916248 -90.3203125 85.265625 C-94.55454445 84.84590521 -96.20274322 83.09966292 -99 80 C-100.84977549 76.30044901 -100.47056911 72.03799166 -100 68 C-97.94892412 64.60511578 -96.29515379 63.19676919 -93 61 C-88.09690586 60.18567492 -83.29080219 60.32581472 -78.875 62.75 C-76.37553599 64.75776617 -76.03128192 65.77930463 -75.57421875 69.00390625 C-75.56348133 72.03543731 -75.69703266 74.98475366 -76 78 C-74.89229248 78.40835083 -74.89229248 78.40835083 -73.76220703 78.82495117 C-71.148135 79.93698305 -69.10850143 81.15554534 -66.8046875 82.80078125 C-66.01642578 83.35894531 -65.22816406 83.91710937 -64.41601562 84.4921875 C-63.57748047 85.09289062 -62.73894531 85.69359375 -61.875 86.3125 C-60.07095431 87.59075005 -58.26625126 88.86807277 -56.4609375 90.14453125 C-55.54795898 90.79115723 -54.63498047 91.4377832 -53.69433594 92.10400391 C-49.65787279 94.94445088 -45.58101523 97.72412021 -41.5 100.5 C-33.93326415 105.65495772 -26.42020359 110.88283294 -18.93554688 116.15625 C-13.67717224 119.85415934 -8.36274189 123.45533197 -3 127 C-1.515 127.99 -1.515 127.99 0 129 C0 86.43 0 43.86 0 0 Z " fill="#21FDF5" transform="translate(529,385)"/>
<path d="M0 0 C0.9796875 -0.00257813 1.959375 -0.00515625 2.96875 -0.0078125 C5.5 0.125 5.5 0.125 7.5 1.125 C8.53013277 2.77321244 9.53114628 4.44003702 10.5 6.125 C10.995 6.62 10.995 6.62 11.5 7.125 C12.08046897 12.17793483 12.04901225 16.06483841 9.6875 20.625 C7.5 23.125 7.5 23.125 4.5 25.125 C4.17099325 27.98621101 4.03196411 30.62626904 4.03125 33.4921875 C4.02363647 34.32332062 4.01602295 35.15445374 4.00817871 36.01077271 C3.99736302 37.77098586 3.99453057 39.53126326 3.99902344 41.29150391 C3.99999394 43.98318997 3.95843226 46.67200859 3.9140625 49.36328125 C3.90885418 51.07291072 3.90616733 52.7825501 3.90625 54.4921875 C3.88985474 55.29647186 3.87345947 56.10075623 3.85656738 56.92941284 C3.90536257 60.88335462 4.07361953 62.68770684 6.88476562 65.57080078 C7.74779297 66.08368652 8.61082031 66.59657227 9.5 67.125 C10.304375 67.62 11.10875 68.115 11.9375 68.625 C12.783125 69.12 13.62875 69.615 14.5 70.125 C17.31783475 71.95986914 20.07275223 73.8014172 22.75390625 75.83203125 C27.86931779 79.63456722 32.22047184 82.03776275 38.46875 83.421875 C40.5 84.125 40.5 84.125 42.5 87.125 C42.5 88.115 42.5 89.105 42.5 90.125 C19.45156147 90.99780764 -3.56823264 91.28567145 -26.63208008 91.25537109 C-31.1362653 91.24953666 -35.64039271 91.25306051 -40.14457607 91.25894356 C-43.65400134 91.26253881 -47.16341255 91.26141775 -50.67283821 91.25881577 C-52.33746409 91.2581506 -54.00209125 91.25896052 -55.66671562 91.26129532 C-57.95940514 91.26381922 -60.25199567 91.25999138 -62.54467773 91.25439453 C-64.49385353 91.25320114 -64.49385353 91.25320114 -66.48240662 91.25198364 C-69.5 91.125 -69.5 91.125 -71.5 90.125 C-71.5 62.075 -71.5 34.025 -71.5 5.125 C-60.6409375 5.0940625 -60.6409375 5.0940625 -49.5625 5.0625 C-47.27449463 5.053396 -44.98648926 5.04429199 -42.62915039 5.03491211 C-40.82698628 5.03199305 -39.0248215 5.02944447 -37.22265625 5.02734375 C-36.27773315 5.02222778 -35.33281006 5.01711182 -34.35925293 5.01184082 C-33.01945374 5.01165955 -33.01945374 5.01165955 -31.65258789 5.01147461 C-30.87315323 5.009254 -30.09371857 5.00703339 -29.29066467 5.00474548 C-27.5 5.125 -27.5 5.125 -26.5 6.125 C-26.48301582 9.08387388 -26.52921114 12.01654837 -26.62109375 14.97265625 C-26.65651024 16.30229652 -26.65651024 16.30229652 -26.69264221 17.65879822 C-26.76947563 20.50185387 -26.85341471 23.34465046 -26.9375 26.1875 C-26.99070101 28.11001319 -27.04344152 30.03253917 -27.09570312 31.95507812 C-27.22424815 36.67859785 -27.36238707 41.40170077 -27.5 46.125 C-17.105 45.63 -17.105 45.63 -6.5 45.125 C-6.5 38.855 -6.5 32.585 -6.5 26.125 C-7.49 25.795 -8.48 25.465 -9.5 25.125 C-10.21727778 23.47948038 -10.88325228 21.81077711 -11.5 20.125 C-12.16 19.465 -12.82 18.805 -13.5 18.125 C-14.37641293 14.06316316 -14.22807255 10.46054413 -12.2265625 6.7890625 C-8.40531875 1.62572339 -6.5332855 -0.01719286 0 0 Z " fill="#21FDF6" transform="translate(441.5,560.875)"/>
<path d="M0 0 C2.9375 1.875 2.9375 1.875 5 5 C5.20412517 6.57138519 5.36986109 8.14799102 5.5078125 9.7265625 C6.35803646 14.30187442 7.76430258 16.17158801 11.46484375 18.96875 C13.26920582 20.17605143 15.09439189 21.35271986 16.9375 22.5 C17.85724609 23.10585938 18.77699219 23.71171875 19.72460938 24.3359375 C22.1338757 25.91751277 24.56284716 27.46197207 27 29 C27.99 29.66 28.98 30.32 30 31 C30.09283852 33.37318478 30.07550853 35.75120063 30 38.125 C30.08697784 42.21199196 30.33527648 45.20334662 33.046875 48.453125 C35.94112742 50.51088828 38.90652006 52.25667198 42 54 C44.32464341 55.53694336 46.59718393 57.14478804 48.875 58.75 C49.92429687 59.46671875 50.97359375 60.1834375 52.0546875 60.921875 C53.02664063 61.60765625 53.99859375 62.2934375 55 63 C55.94488281 63.495 56.88976562 63.99 57.86328125 64.5 C61.50757275 68.76388768 60.51573422 73.85960312 60.3125 79.25 C60.28994141 80.37664062 60.26738281 81.50328125 60.24414062 82.6640625 C60.18525898 85.44327612 60.09558006 88.22180637 60 91 C64.29 91 68.58 91 73 91 C74.65724113 74.73335483 74.65724113 74.73335483 69.35546875 60.2265625 C66.20308719 57.60211219 62.6449829 55.84950672 59 54 C57.36578889 52.68224732 55.7573048 51.3313547 54.1875 49.9375 C51.30643816 47.65908229 49.41926157 46.64148268 45.75 46.375 C42 46 42 46 39 43.75 C37 41 37 41 36.4375 38.4375 C37.19832445 35.14059407 38.24818444 33.95523737 41 32 C44.80994895 31.35149805 46.50335677 31.71928861 49.875 33.625 C52 36 52 36 52.3125 39.25 C52.209375 40.1575 52.10625 41.065 52 42 C52.57959473 42.27473145 53.15918945 42.54946289 53.75634766 42.83251953 C55.9527948 43.97543686 57.88564191 45.24098313 59.8984375 46.6796875 C60.62546875 47.19660156 61.3525 47.71351563 62.1015625 48.24609375 C62.85179687 48.78363281 63.60203125 49.32117188 64.375 49.875 C65.86144708 50.93564193 67.34841684 51.99555176 68.8359375 53.0546875 C69.49126465 53.52374512 70.1465918 53.99280273 70.82177734 54.47607422 C73.08965402 56.12566114 73.08965402 56.12566114 76.09356689 57.66525269 C79 60 79 60 79.7215271 63.13848877 C79.70820343 64.3731488 79.69487976 65.60780884 79.68115234 66.87988281 C79.68246658 67.90488388 79.68246658 67.90488388 79.68380737 68.95059204 C79.67963679 71.20261166 79.63302119 73.45162802 79.5859375 75.703125 C79.5747432 77.2668088 79.56620411 78.83051369 79.56021118 80.39422607 C79.53733048 84.50474415 79.47841621 88.61398479 79.4119873 92.72399902 C79.35054695 96.91999022 79.32319258 101.11618839 79.29296875 105.3125 C79.22867009 113.54225212 79.12630236 121.77096704 79 130 C79.62390625 130.11988281 80.2478125 130.23976563 80.890625 130.36328125 C83 131 83 131 84.75 133.1875 C86.23084571 136.51940284 86.51601128 138.38792103 86 142 C84.36235678 145.0413374 82.90006661 147.28615407 80.1875 149.4375 C76.781792 150.31325348 74.38719708 149.89136765 71 149 C67.81292414 146.89788613 66.30363207 145.40084798 65.484375 141.62109375 C65.16445434 136.7423037 65.16445434 136.7423037 66 134 C66.98911377 133.2778833 67.97822754 132.5557666 68.99731445 131.81176758 C71.71771319 129.61673277 71.96720834 129.14870177 72.77294922 125.49487305 C72.78342285 124.18043213 72.79389648 122.86599121 72.8046875 121.51171875 C72.81839386 120.80852005 72.83210022 120.10532135 72.84622192 119.3808136 C72.88342079 117.14905221 72.87981507 114.91952651 72.875 112.6875 C72.89313436 111.16858517 72.9139394 109.64969973 72.9375 108.13085938 C72.99425822 104.41927737 72.99574872 100.71349148 73 97 C68.38 97 63.76 97 59 97 C59 107.56 59 118.12 59 129 C55.720625 129.020625 52.44125 129.04125 49.0625 129.0625 C48.02746338 129.071604 46.99242676 129.08070801 45.92602539 129.09008789 C45.11641357 129.09258545 44.30680176 129.09508301 43.47265625 129.09765625 C42.64000244 129.10289307 41.80734863 129.10812988 40.94946289 129.11352539 C39 129 39 129 38 128 C38 126.35 38 124.7 38 123 C42.95 123 47.9 123 53 123 C56.66508086 92.91873483 56.66508086 92.91873483 49.67773438 64.93652344 C44.71090383 59.33711466 37.78298383 56.27398482 30.75488281 54.06591797 C27.57019845 52.83370139 25.45191232 51.36998685 23 49 C22.92578125 45.78515625 22.92578125 45.78515625 23.3125 42.0625 C23.43115281 38.00026842 23.02347958 35.15683857 20.27246094 32.04736328 C14.71175269 27.24786856 7.46488778 21.15237058 0 20 C-0.66 20.33 -1.32 20.66 -2 21 C-4.8125 21.375 -4.8125 21.375 -8 21 C-11.11707703 18.36780162 -13.70132452 16.17179745 -14.2734375 12.01171875 C-14.45781799 7.79224224 -14.37243334 5.58868496 -12.0625 1.9375 C-7.93897592 -0.67126013 -4.75344319 -1.03523264 0 0 Z " fill="#196569" transform="translate(421,489)"/>
<path d="M0 0 C2.9375 1.875 2.9375 1.875 5 5 C5.20412517 6.57138519 5.36986109 8.14799102 5.5078125 9.7265625 C6.35803646 14.30187442 7.76430258 16.17158801 11.46484375 18.96875 C13.26920582 20.17605143 15.09439189 21.35271986 16.9375 22.5 C17.85724609 23.10585938 18.77699219 23.71171875 19.72460938 24.3359375 C22.1338757 25.91751277 24.56284716 27.46197207 27 29 C27.99 29.66 28.98 30.32 30 31 C30.09283852 33.37318478 30.07550853 35.75120063 30 38.125 C30.08697784 42.21199196 30.33527648 45.20334662 33.046875 48.453125 C35.94112742 50.51088828 38.90652006 52.25667198 42 54 C44.32464341 55.53694336 46.59718393 57.14478804 48.875 58.75 C49.92429687 59.46671875 50.97359375 60.1834375 52.0546875 60.921875 C53.02664063 61.60765625 53.99859375 62.2934375 55 63 C56.41732422 63.75796875 56.41732422 63.75796875 57.86328125 64.53125 C61.44958305 68.67483818 60.5199774 73.48326595 60.3125 78.75 C60.28994141 79.82894531 60.26738281 80.90789062 60.24414062 82.01953125 C60.1852565 84.6810935 60.10307001 87.33984228 60 90 C59.67 90 59.34 90 59 90 C58.970271 89.15236084 58.970271 89.15236084 58.93994141 88.28759766 C58.84481764 85.73292003 58.73508942 83.17907459 58.625 80.625 C58.5940625 79.73554687 58.563125 78.84609375 58.53125 77.9296875 C58.49257813 77.07890625 58.45390625 76.228125 58.4140625 75.3515625 C58.3826416 74.56604004 58.3512207 73.78051758 58.31884766 72.97119141 C58.1600535 70.76997061 58.1600535 70.76997061 56 69 C55.67 69 55.34 69 55 69 C54.67 86.82 54.34 104.64 54 123 C53.67 123 53.34 123 53 123 C53.0407666 122.35901367 53.0815332 121.71802734 53.12353516 121.05761719 C56.56406907 91.97532504 56.56406907 91.97532504 49.67773438 64.93652344 C44.71090383 59.33711466 37.78298383 56.27398482 30.75488281 54.06591797 C27.57019845 52.83370139 25.45191232 51.36998685 23 49 C22.92578125 45.78515625 22.92578125 45.78515625 23.3125 42.0625 C23.43115281 38.00026842 23.02347958 35.15683857 20.27246094 32.04736328 C14.71175269 27.24786856 7.46488778 21.15237058 0 20 C-0.66 20.33 -1.32 20.66 -2 21 C-4.8125 21.375 -4.8125 21.375 -8 21 C-11.11707703 18.36780162 -13.70132452 16.17179745 -14.2734375 12.01171875 C-14.45781799 7.79224224 -14.37243334 5.58868496 -12.0625 1.9375 C-7.93897592 -0.67126013 -4.75344319 -1.03523264 0 0 Z " fill="#196C72" transform="translate(421,489)"/>
<path d="M0 0 C0.66 0 1.32 0 2 0 C2.51046875 1.17755859 2.51046875 1.17755859 3.03125 2.37890625 C8.05320028 13.26425062 13.78827324 18.82155554 25 23 C25 23.66 25 24.32 25 25 C24.21496094 25.3403125 23.42992187 25.680625 22.62109375 26.03125 C11.73574938 31.05320028 6.17844446 36.78827324 2 48 C1.34 48 0.68 48 0 48 C-0.3403125 47.21496094 -0.680625 46.42992187 -1.03125 45.62109375 C-6.05320028 34.73574938 -11.78827324 29.17844446 -23 25 C-23 24.34 -23 23.68 -23 23 C-22.21496094 22.6596875 -21.42992187 22.319375 -20.62109375 21.96875 C-9.73574938 16.94679972 -4.17844446 11.21172676 0 0 Z " fill="#808283" transform="translate(967,944)"/>
<path d="M0 0 C3.97367702 1.80712447 7.51530005 4.25789426 11.125 6.6875 C11.73859375 7.09677734 12.3521875 7.50605469 12.984375 7.92773438 C14.24373326 8.77119346 15.49427182 9.62798166 16.73529053 10.49819946 C19.00297613 12.05340601 19.00297613 12.05340601 21.55523682 13.365448 C28.47177714 17.36862089 28.47177714 17.36862089 29.8777771 21.71095276 C30.15759653 25.01557153 30.12589962 28.18298044 29.9765625 31.49609375 C29.95533829 33.27911644 29.95533829 33.27911644 29.9336853 35.09815979 C29.87787339 38.88054396 29.75245423 42.65691896 29.625 46.4375 C29.57482246 49.00707567 29.52919807 51.57674456 29.48828125 54.14648438 C29.37825119 60.43329133 29.20579583 66.71562843 29 73 C24.05 73 19.1 73 14 73 C14.33 74.65 14.66 76.3 15 78 C20.94 78.33 26.88 78.66 33 79 C33 79.33 33 79.66 33 80 C31.39318359 80.07347656 31.39318359 80.07347656 29.75390625 80.1484375 C28.35674361 80.22345294 26.9596095 80.2990013 25.5625 80.375 C24.85544922 80.4059375 24.14839844 80.436875 23.41992188 80.46875 C21.60760812 80.57280629 19.80182012 80.77919892 18 81 C17.67 81.66 17.34 82.32 17 83 C14.50638429 81.79618552 12.31856917 80.54571278 10 79 C9.58379057 75.30406029 9.86992526 71.72880913 10 68 C14.29 68 18.58 68 23 68 C23.25421452 61.36400552 23.40078848 54.73710881 23.45166016 48.09643555 C23.4836159 45.84291021 23.54400922 43.58958993 23.63427734 41.33764648 C24.54228442 29.07238659 24.54228442 29.07238659 20.48535156 17.93414307 C16.81541362 14.48470355 12.67275241 12.17198194 8.13598633 10.04605103 C4.58929268 8.30913798 1.30936707 6.14709597 -2 4 C-1.34 3.67 -0.68 3.34 0 3 C0 2.01 0 1.02 0 0 Z " fill="#1EF1EC" transform="translate(445,539)"/>
<path d="M0 0 C14.85 0 29.7 0 45 0 C45.93989063 4.69945314 46.13991112 8.99158299 46.12698364 13.74331665 C46.12854363 14.62343583 46.13010362 15.50355502 46.13171089 16.41034448 C46.13569908 19.35902924 46.13253968 22.30766251 46.12939453 25.25634766 C46.13074952 27.37041758 46.13253 29.48448728 46.13470459 31.59855652 C46.13926677 37.34002018 46.13749448 43.08146588 46.1343255 48.82292986 C46.13179631 54.82599467 46.13414095 60.82905793 46.13571167 66.8321228 C46.13753144 76.91152218 46.13513179 86.99091423 46.13037109 97.0703125 C46.1249259 108.73387158 46.12669378 120.39741319 46.1321975 132.06097186 C46.13673057 142.06698304 46.13737831 152.07298895 46.13475883 162.07900083 C46.13319751 168.05884104 46.13299841 174.03867304 46.13629532 180.01851273 C46.13917693 185.63762801 46.13719295 191.25672068 46.13140106 196.87583351 C46.13007516 198.94187571 46.13046472 201.0079198 46.13266373 203.07396126 C46.13538177 205.88621703 46.13198602 208.69839957 46.12698364 211.51065063 C46.12921436 212.3350554 46.13144509 213.15946016 46.13374341 214.00884688 C46.1224419 217.26709657 46.0378473 219.88645809 45 223 C61.5 222.67 78 222.34 95 222 C95 222.66 95 223.32 95 224 C78.17 224 61.34 224 44 224 C44 150.41 44 76.82 44 1 C29.81 1 15.62 1 1 1 C1 43.57 1 86.14 1 130 C-0.32 129.34 -1.64 128.68 -3 128 C-2.67 127.01 -2.34 126.02 -2 125 C-1.34 125 -0.68 125 0 125 C-0.01474869 123.84695374 -0.02949738 122.69390747 -0.04469299 121.50592041 C-0.18448957 110.50704299 -0.31704914 99.5080976 -0.4429636 88.50905228 C-0.50787954 82.8577104 -0.57512988 77.20641866 -0.64819336 71.55517578 C-0.95553449 47.6607601 -1.15942126 23.87548959 0 0 Z " fill="#19727A" transform="translate(528,384)"/>
<path d="M0 0 C0.66 0.66 1.32 1.32 2 2 C2.66 2.33 3.32 2.66 4 3 C4.33 9.6 4.66 16.2 5 23 C7.64 23.66 10.28 24.32 13 25 C13 25.99 13 26.98 13 28 C13.66 28.33 14.32 28.66 15 29 C11.37 29.33 7.74 29.66 4 30 C4 40.56 4 51.12 4 62 C0.720625 62.020625 -2.55875 62.04125 -5.9375 62.0625 C-6.97253662 62.071604 -8.00757324 62.08070801 -9.07397461 62.09008789 C-9.88358643 62.09258545 -10.69319824 62.09508301 -11.52734375 62.09765625 C-12.77632446 62.10551147 -12.77632446 62.10551147 -14.05053711 62.11352539 C-16 62 -16 62 -17 61 C-17 59.35 -17 57.7 -17 56 C-11.72 56 -6.44 56 -1 56 C-1.00523682 54.37465332 -1.01047363 52.74930664 -1.01586914 51.07470703 C-1.03392593 45.06266833 -1.04543452 39.05063204 -1.05493164 33.03857422 C-1.0599703 30.43310137 -1.0668013 27.82763137 -1.07543945 25.22216797 C-1.08752544 21.48404236 -1.09323288 17.74595403 -1.09765625 14.0078125 C-1.10281754 12.83695099 -1.10797882 11.66608948 -1.11329651 10.45974731 C-1.11337204 9.37877777 -1.11344757 8.29780823 -1.11352539 7.18408203 C-1.115746 6.22921906 -1.11796661 5.27435608 -1.12025452 4.29055786 C-1 2 -1 2 0 0 Z " fill="#175E64" transform="translate(476,556)"/>
<path d="M0 0 C0.66 0 1.32 0 2 0 C2 40.92 2 81.84 2 124 C46.88 124 91.76 124 138 124 C138 101.89 138 79.78 138 57 C124.14 57 110.28 57 96 57 C96 56.67 96 56.34 96 56 C110.19 56 124.38 56 139 56 C139 78.77 139 101.54 139 125 C134.76737557 125.70543741 131.45018892 126.11814448 127.26724243 126.08229065 C125.58886795 126.07173141 125.58886795 126.07173141 123.87658691 126.06095886 C122.66386108 126.04801285 121.45113525 126.03506683 120.20166016 126.02172852 C118.91331268 126.01212097 117.62496521 126.00251343 116.2975769 125.99261475 C112.77733248 125.96624538 109.25717426 125.93344366 105.73699617 125.89946485 C102.05348477 125.86501075 98.3699274 125.83650308 94.68637085 125.80735779 C87.71666827 125.75131156 80.74702326 125.68993714 73.77738321 125.62663645 C65.84030668 125.55480949 57.90318418 125.48894064 49.96605229 125.42356598 C33.64397438 125.28899506 17.321973 125.14675096 1 125 C1 118.4 1 111.8 1 105 C0.34 105 -0.32 105 -1 105 C-0.814375 104.05125 -0.62875 103.1025 -0.4375 102.125 C0.28686632 99.10131207 0.28686632 99.10131207 -1 97 C-0.505 96.01 -0.505 96.01 0 95 C0.09347492 92.00963277 0.12572733 89.04269522 0.11352539 86.05224609 C0.11367142 85.12536484 0.11381744 84.19848358 0.1139679 83.24351501 C0.11326946 80.1701323 0.10548027 77.09680967 0.09765625 74.0234375 C0.09579182 71.89637281 0.09436804 69.7693077 0.09336853 67.64224243 C0.08954528 62.03624288 0.07971662 56.43026912 0.06866455 50.82427979 C0.0584463 45.10681507 0.05387002 39.38934621 0.04882812 33.671875 C0.0380942 22.44790532 0.02102007 11.2239548 0 0 Z " fill="#1E9698" transform="translate(527,526)"/>
<path d="M0 0 C10.8590625 -0.0309375 10.8590625 -0.0309375 21.9375 -0.0625 C24.22550537 -0.071604 26.51351074 -0.08070801 28.87084961 -0.09008789 C30.67301372 -0.09300695 32.4751785 -0.09555553 34.27734375 -0.09765625 C35.22226685 -0.10277222 36.16718994 -0.10788818 37.14074707 -0.11315918 C38.48054626 -0.11334045 38.48054626 -0.11334045 39.84741211 -0.11352539 C40.62684677 -0.115746 41.40628143 -0.11796661 42.20933533 -0.12025452 C44 0 44 0 45 1 C45.01698418 3.95887388 44.97078886 6.89154837 44.87890625 9.84765625 C44.84348976 11.17729652 44.84348976 11.17729652 44.80735779 12.53379822 C44.73052437 15.37685387 44.64658529 18.21965046 44.5625 21.0625 C44.50929899 22.98501319 44.45655848 24.90753917 44.40429688 26.83007812 C44.27575185 31.55359785 44.13761293 36.27670077 44 41 C54.395 40.505 54.395 40.505 65 40 C65 33.73 65 27.46 65 21 C64.01 20.67 63.02 20.34 62 20 C62 19.34 62 18.68 62 18 C63.32 18.66 64.64 19.32 66 20 C66 27.26 66 34.52 66 42 C58.41 42 50.82 42 43 42 C43 28.47 43 14.94 43 1 C29.14 1 15.28 1 1 1 C1 28.39 1 55.78 1 84 C37.3 83.67 73.6 83.34 111 83 C108.69 81.35 106.38 79.7 104 78 C106 77 106 77 109.5625 78.125 C110.696875 78.74375 111.83125 79.3625 113 80 C113.71484375 82.6171875 113.71484375 82.6171875 114 85 C90.95156147 85.87280764 67.93176736 86.16067145 44.86791992 86.13037109 C40.3637347 86.12453666 35.85960729 86.12806051 31.35542393 86.13394356 C27.84599866 86.13753881 24.33658745 86.13641775 20.82716179 86.13381577 C19.16253591 86.1331506 17.49790875 86.13396052 15.83328438 86.13629532 C13.54059486 86.13881922 11.24800433 86.13499138 8.95532227 86.12939453 C7.00614647 86.12820114 7.00614647 86.12820114 5.01759338 86.12698364 C2 86 2 86 0 85 C0 56.95 0 28.9 0 0 Z " fill="#22A9A8" transform="translate(370,566)"/>
<path d="M0 0 C2.875 1.625 2.875 1.625 5 4 C5.3125 7.25 5.3125 7.25 5 10 C5.57959473 10.27473145 6.15918945 10.54946289 6.75634766 10.83251953 C8.9527948 11.97543686 10.88564191 13.24098313 12.8984375 14.6796875 C13.98898437 15.45505859 13.98898437 15.45505859 15.1015625 16.24609375 C15.85179687 16.78363281 16.60203125 17.32117188 17.375 17.875 C22.20581566 21.32198826 27.04011378 24.7406462 32 28 C31.4225 28.12375 30.845 28.2475 30.25 28.375 C27.97387794 29.00725613 26.09239794 29.91863468 24 31 C20.8729549 28.71111356 17.7487204 26.41842115 14.625 24.125 C13.73554688 23.47402344 12.84609375 22.82304688 11.9296875 22.15234375 C11.07890625 21.52714844 10.228125 20.90195312 9.3515625 20.2578125 C8.56604004 19.6817627 7.78051758 19.10571289 6.97119141 18.51220703 C5 17 5 17 3 15 C1.1128125 14.8453125 1.1128125 14.8453125 -0.8125 14.6875 C-4.24572628 14.33104481 -5.06256076 13.95307943 -8 11.75 C-10 9 -10 9 -10.5625 6.4375 C-9.23388915 0.68018632 -5.56659872 -0.90883244 0 0 Z " fill="#186D71" transform="translate(468,521)"/>
<path d="M0 0 C3.44996778 0.79999253 5.06552996 2.75592995 7.15625 5.5 C8.6345726 8.45664519 8.21657783 11.24229737 8.15625 14.5 C7.82625 14.5 7.49625 14.5 7.15625 14.5 C7.15625 12.52 7.15625 10.54 7.15625 8.5 C5.83625 8.5 4.51625 8.5 3.15625 8.5 C3.176875 9.634375 3.1975 10.76875 3.21875 11.9375 C3.15625 15.5 3.15625 15.5 2.15625 16.5 C0.15666636 16.54080783 -1.84420254 16.54254356 -3.84375 16.5 C-4.17375 17.82 -4.50375 19.14 -4.84375 20.5 C-3.19375 20.5 -1.54375 20.5 0.15625 20.5 C0.15625 20.83 0.15625 21.16 0.15625 21.5 C-2.53125 21.8125 -2.53125 21.8125 -5.84375 21.5 C-8.96082703 18.86780162 -11.54507452 16.67179745 -12.1171875 12.51171875 C-12.30156799 8.29224224 -12.21618334 6.08868496 -9.90625 2.4375 C-6.33811424 0.18010799 -4.15624004 -0.22166614 0 0 Z " fill="#18777D" transform="translate(418.84375,488.5)"/>
<path d="M0 0 C3.32151635 1.24556863 3.88387832 2.8521768 5.5 5.9375 C6.3353125 6.6490625 6.3353125 6.6490625 7.1875 7.375 C8.5 8.9375 8.5 8.9375 8.875 11.9375 C8.5 14.9375 8.5 14.9375 7.375 16.8125 C4.68282457 18.42780526 2.57846795 18.19949727 -0.5 17.9375 C-1.16 17.6075 -1.82 17.2775 -2.5 16.9375 C-3.82 18.2575 -5.14 19.5775 -6.5 20.9375 C-9.86713248 17.07020991 -10.00614172 14.3303863 -9.859375 9.34765625 C-9.35149602 5.94155483 -8.01178164 4.23398608 -5.5 1.9375 C-2.5 -0.0625 -2.5 -0.0625 0 0 Z " fill="#26F1EE" transform="translate(438.5,446.0625)"/>
<path d="M0 0 C18.48 0 36.96 0 56 0 C56 9.24 56 18.48 56 28 C70.19 28 84.38 28 99 28 C99 28.33 99 28.66 99 29 C84.48 29 69.96 29 55 29 C53.84160441 19.73283528 54 10.33928382 54 1 C28.755 1.495 28.755 1.495 3 2 C2.08964496 4.73106511 1.87784287 6.29893239 1.88647461 9.10424805 C1.88655014 9.92487228 1.88662567 10.74549652 1.88670349 11.59098816 C1.89186478 12.47232925 1.89702606 13.35367035 1.90234375 14.26171875 C1.9037587 15.16751175 1.90517365 16.07330475 1.90663147 17.00654602 C1.91222999 19.90023091 1.92478219 22.79383849 1.9375 25.6875 C1.94251519 27.64908742 1.94707807 29.61067606 1.95117188 31.57226562 C1.96219893 36.38154021 1.97946253 41.190757 2 46 C1.34 45.67 0.68 45.34 0 45 C0 30.15 0 15.3 0 0 Z " fill="#1B878B" transform="translate(413,426)"/>
<path d="M0 0 C14.52 0 29.04 0 44 0 C44 0.33 44 0.66 44 1 C29.81 1 15.62 1 1 1 C1 43.57 1 86.14 1 130 C-0.32 129.34 -1.64 128.68 -3 128 C-2.67 127.01 -2.34 126.02 -2 125 C-1.34 125 -0.68 125 0 125 C-0.01474869 123.84695374 -0.02949738 122.69390747 -0.04469299 121.50592041 C-0.18448957 110.50704299 -0.31704914 99.5080976 -0.4429636 88.50905228 C-0.50787954 82.8577104 -0.57512988 77.20641866 -0.64819336 71.55517578 C-0.95553449 47.6607601 -1.15942126 23.87548959 0 0 Z " fill="#199B9B" transform="translate(528,384)"/>
<path d="M0 0 C2.8125 1.5625 2.8125 1.5625 5 4 C5.8125 7.75 5.8125 7.75 6 11 C2.26606573 13.48928951 -1.6633235 13.71981721 -6 13 C-8.91523942 11.03221339 -9.81144448 9.94277758 -10.5 6.5 C-9.33490052 0.67450258 -5.55481728 -0.90690894 0 0 Z " fill="#144C52" transform="translate(468,521)"/>
<path d="M0 0 C0.33 0 0.66 0 1 0 C1 3.3 1 6.6 1 10 C37.3 9.67 73.6 9.34 111 9 C108.69 7.35 106.38 5.7 104 4 C106 3 106 3 109.5625 4.125 C110.696875 4.74375 111.83125 5.3625 113 6 C113.71484375 8.6171875 113.71484375 8.6171875 114 11 C90.95156147 11.87280764 67.93176736 12.16067145 44.86791992 12.13037109 C40.3637347 12.12453666 35.85960729 12.12806051 31.35542393 12.13394356 C27.84599866 12.13753881 24.33658745 12.13641775 20.82716179 12.13381577 C19.16253591 12.1331506 17.49790875 12.13396052 15.83328438 12.13629532 C13.54059486 12.13881922 11.24800433 12.13499138 8.95532227 12.12939453 C7.00614647 12.12820114 7.00614647 12.12820114 5.01759338 12.12698364 C2 12 2 12 0 11 C0 7.37 0 3.74 0 0 Z " fill="#1D9395" transform="translate(370,640)"/>
<path d="M0 0 C1.32 0 2.64 0 4 0 C4.165 1.03125 4.33 2.0625 4.5 3.125 C5.87133143 8.14980395 9.79321153 10.32917848 14 13 C13.67 14.65 13.34 16.3 13 18 C9.30097719 17.67361563 8.06571278 17.06265637 5.3125 14.4375 C2.48591838 11.85574041 0.41481185 11.66611883 -3.375 11.6875 C-4.91812705 11.76715995 -6.46089264 11.86312286 -8 12 C-7.67 10.68 -7.34 9.36 -7 8 C-5.02 7.67 -3.04 7.34 -1 7 C-0.67 4.69 -0.34 2.38 0 0 Z " fill="#155B62" transform="translate(422,497)"/>
<path d="M0 0 C2 1.0625 2 1.0625 3 3 C2.66666667 9.33333333 2.66666667 9.33333333 0 12 C-3.4375 12.375 -3.4375 12.375 -7 12 C-9.42061048 9.89172636 -9.9127007 8.59654522 -10.375 5.4375 C-10 3 -10 3 -8.9375 1.1875 C-5.90624457 -0.67036623 -3.46577141 -0.37133265 0 0 Z " fill="#175B5E" transform="translate(444,568)"/>
<path d="M0 0 C3.5625 0.3125 3.5625 0.3125 5.5 1.4375 C7.06672245 4.20230433 6.95226435 6.19438517 6.5625 9.3125 C5.4375 11.1875 5.4375 11.1875 3.5625 12.3125 C0.44438517 12.70226435 -1.54769567 12.81672245 -4.3125 11.25 C-6.05723477 8.24517901 -5.74585443 5.70439869 -5.4375 2.3125 C-3.4375 0.3125 -3.4375 0.3125 0 0 Z " fill="#135A5D" transform="translate(440.4375,451.6875)"/>
<path d="M0 0 C0.9796875 -0.00257813 1.959375 -0.00515625 2.96875 -0.0078125 C5.5 0.125 5.5 0.125 7.5 1.125 C7.17 1.785 6.84 2.445 6.5 3.125 C5.84 2.795 5.18 2.465 4.5 2.125 C2.1670134 2.08477609 -0.16706666 2.08179753 -2.5 2.125 C-2.83 3.115 -3.16 4.105 -3.5 5.125 C-2.18 5.785 -0.86 6.445 0.5 7.125 C-0.428125 7.310625 -1.35625 7.49625 -2.3125 7.6875 C-6.61170092 9.62635532 -6.84522861 11.83763777 -8.5 16.125 C-10.6875 18.0625 -10.6875 18.0625 -12.5 19.125 C-14.02993969 17.59506031 -13.8169616 16.19201177 -13.9375 14.0625 C-13.91056714 8.45148842 -11.34440587 5.02916347 -7.5 1.125 C-4.89080172 -0.17959914 -2.91057385 -0.0076594 0 0 Z " fill="#20E4E2" transform="translate(441.5,560.875)"/>
<path d="M0 0 C3.02966507 1.53698419 4.83361059 2.47287847 7 5 C7.89061424 8.96071134 7.66178079 12.7779104 7.4375 16.8125 C7.40591797 17.88693359 7.37433594 18.96136719 7.34179688 20.06835938 C7.25945583 22.71503569 7.14453557 25.35611094 7 28 C6.67 28 6.34 28 6 28 C5.98018066 27.43490723 5.96036133 26.86981445 5.93994141 26.28759766 C5.84481764 23.73292003 5.73508942 21.17907459 5.625 18.625 C5.5940625 17.73554687 5.563125 16.84609375 5.53125 15.9296875 C5.49257813 15.07890625 5.45390625 14.228125 5.4140625 13.3515625 C5.3826416 12.56604004 5.3512207 11.78051758 5.31884766 10.97119141 C5.1600535 8.76997061 5.1600535 8.76997061 3 7 C2.67 7 2.34 7 2 7 C1.67 24.82 1.34 42.64 1 61 C0.67 61 0.34 61 0 61 C-0.00586624 60.33014572 -0.01173248 59.66029144 -0.01777649 58.97013855 C-0.0816098 52.01097968 -0.16600328 45.05228759 -0.26245117 38.09350586 C-0.29574743 35.49493557 -0.32376454 32.89629213 -0.34643555 30.29760742 C-0.37989451 26.56657681 -0.43220729 22.83621939 -0.48828125 19.10546875 C-0.49786613 17.35691841 -0.49786613 17.35691841 -0.50764465 15.57304382 C-0.52743881 14.49214981 -0.54723297 13.4112558 -0.56762695 12.29760742 C-0.57873001 11.34496506 -0.58983307 10.39232269 -0.60127258 9.41081238 C-1.06272435 6.62075182 -1.81941759 5.73042913 -4 4 C-3.01 4 -2.02 4 -1 4 C-0.67 2.68 -0.34 1.36 0 0 Z " fill="#1B8387" transform="translate(474,551)"/>
<path d="M0 0 C2.375 0.3125 2.375 0.3125 5 1 C7.35620437 4.53430656 7.48991613 5.83571287 7 10 C4.94946964 13.80812781 3.25621602 16.71023757 -1 18 C-3.75 18.125 -3.75 18.125 -6 18 C-6 17.01 -6 16.02 -6 15 C-6.66 15 -7.32 15 -8 15 C-7.67 14.01 -7.34 13.02 -7 12 C-3.535 11.505 -3.535 11.505 0 11 C0.84098656 6.98195309 1.05404945 3.98196457 0 0 Z " fill="#155C65" transform="translate(500,621)"/>
<path d="M0 0 C4.07901101 1.84280193 7.67808242 4.37885289 11.375 6.875 C12.02210938 7.30941406 12.66921875 7.74382813 13.3359375 8.19140625 C14.61224103 9.04827939 15.88797211 9.9060059 17.16308594 10.76464844 C19.77002725 12.51785459 22.38475865 14.25920467 25 16 C23.68 16.99 22.36 17.98 21 19 C19.515 18.00419922 19.515 18.00419922 18 16.98828125 C11.38986242 12.56367948 4.78502974 8.15409984 -2 4 C-1.34 3.67 -0.68 3.34 0 3 C0 2.01 0 1.02 0 0 Z " fill="#26ECE9" transform="translate(445,539)"/>
<path d="M0 0 C0.99 0.495 0.99 0.495 2 1 C1.67 14.2 1.34 27.4 1 41 C11.395 40.505 11.395 40.505 22 40 C22 33.73 22 27.46 22 21 C21.01 20.67 20.02 20.34 19 20 C19 19.34 19 18.68 19 18 C20.32 18.66 21.64 19.32 23 20 C23 27.26 23 34.52 23 42 C15.41 42 7.82 42 0 42 C0 28.14 0 14.28 0 0 Z " fill="#1B9295" transform="translate(413,566)"/>
<path d="M0 0 C2.4375 0.75 2.4375 0.75 4.4375 2.75 C3.86931818 8.31818182 3.86931818 8.31818182 2.4375 9.75 C-0.5 9.9375 -0.5 9.9375 -3.5625 9.75 C-5.5625 7.75 -5.5625 7.75 -5.875 4.75 C-5.771875 3.76 -5.66875 2.77 -5.5625 1.75 C-2.5625 -0.25 -2.5625 -0.25 0 0 Z " fill="#23ECE9" transform="translate(497.5625,623.25)"/>
<path d="M0 0 C2.5625 0.3125 2.5625 0.3125 4.4375 1.4375 C6.11540631 4.23401052 5.31125648 6.24940532 4.5625 9.3125 C1.1875 9.9375 1.1875 9.9375 -2.4375 10.3125 C-4.4375 8.3125 -4.4375 8.3125 -4.6875 5.3125 C-4.37675292 1.58353509 -3.7821044 0.48488518 0 0 Z " fill="#24F4EF" transform="translate(416.4375,493.6875)"/>
<path d="M0 0 C0.33 0 0.66 0 1 0 C1 20.79 1 41.58 1 63 C-0.32 62.34 -1.64 61.68 -3 61 C-2.67 60.01 -2.34 59.02 -2 58 C-1.34 58 -0.68 58 0 58 C0 38.86 0 19.72 0 0 Z " fill="#188F91" transform="translate(528,451)"/>
<path d="M0 0 C4.47014404 2.50328066 8.76946537 5.1108544 13 8 C12.4225 8.12375 11.845 8.2475 11.25 8.375 C8.97664233 9.00648824 7.0746471 9.88858191 5 11 C2.69 9.35 0.38 7.7 -2 6 C-1.34 5.67 -0.68 5.34 0 5 C0 3.35 0 1.7 0 0 Z " fill="#177074" transform="translate(487,541)"/>
<path d="M0 0 C0.99 0.66 1.98 1.32 3 2 C3.39964378 5.1305429 3.52149743 7.13083761 1.875 9.875 C-0.88090884 11.52854531 -2.85075452 11.39365568 -6 11 C-7.875 9.5 -7.875 9.5 -9 8 C-8.67 7.01 -8.34 6.02 -8 5 C-7.21625 5.350625 -6.4325 5.70125 -5.625 6.0625 C-4.325625 6.5265625 -4.325625 6.5265625 -3 7 C-2.34 6.67 -1.68 6.34 -1 6 C-0.34227572 2.97065509 -0.34227572 2.97065509 0 0 Z " fill="#135E61" transform="translate(444,453)"/>
<path d="M0 0 C0.99 1.485 0.99 1.485 2 3 C1.67 3.99 1.34 4.98 1 6 C-1.66355234 6.39169887 -3.39224373 6.40564529 -5.66796875 4.88671875 C-7.1510888 3.63610683 -8.57954352 2.32135486 -10 1 C-9 -1 -9 -1 -7.25 -1.75 C-4.27721752 -2.08030916 -2.62815114 -1.38323744 0 0 Z " fill="#155D65" transform="translate(472,549)"/>
<path d="M0 0 C0.66 0.66 1.32 1.32 2 2 C0.02 2.99 0.02 2.99 -2 4 C-1.67 4.99 -1.34 5.98 -1 7 C-0.93936377 9.40680563 -0.93969514 11.81531255 -0.97265625 14.22265625 C-0.9852967 15.66210702 -0.99765808 17.10156027 -1.00976562 18.54101562 C-1.03464078 20.80810248 -1.06268431 23.07506111 -1.09594727 25.34204102 C-1.12606874 27.53142131 -1.14389396 29.72063545 -1.16015625 31.91015625 C-1.17699463 33.22121338 -1.19383301 34.53227051 -1.21118164 35.88305664 C-1.33631153 39.10214881 -1.33631153 39.10214881 1 41 C0.01 41 -0.98 41 -2 41 C-4.07189132 38.92810868 -3.18832241 34.51545983 -3.203125 31.66015625 C-3.21167511 30.40421913 -3.21167511 30.40421913 -3.22039795 29.12290955 C-3.22986154 27.34831003 -3.23638731 25.57369284 -3.24023438 23.79907227 C-3.24994709 21.07732677 -3.28095987 18.3563339 -3.3125 15.63476562 C-3.31902899 13.914067 -3.32427987 12.19336296 -3.328125 10.47265625 C-3.3404718 9.65491226 -3.3528186 8.83716827 -3.36553955 7.99464417 C-3.35644531 5.69946289 -3.35644531 5.69946289 -3 2 C-2.01 1.34 -1.02 0.68 0 0 Z " fill="#1B7777" transform="translate(448,584)"/>
<path d="M0 0 C1.31352023 0.30818356 2.62579572 0.62167665 3.9375 0.9375 C5.03384766 1.19853516 5.03384766 1.19853516 6.15234375 1.46484375 C8 2 8 2 9 3 C9.04080783 4.99958364 9.04254356 7.00045254 9 9 C4.59885603 8.49701212 2.28804981 6.91227269 -1 4 C-0.67 2.68 -0.34 1.36 0 0 Z " fill="#14656A" transform="translate(478,537)"/>
<path d="M0 0 C0.66 0.33 1.32 0.66 2 1 C2 10.24 2 19.48 2 29 C6.95 29 11.9 29 17 29 C17 29.33 17 29.66 17 30 C11.72 30 6.44 30 1 30 C1 23.4 1 16.8 1 10 C0.34 10 -0.32 10 -1 10 C-0.814375 9.05125 -0.62875 8.1025 -0.4375 7.125 C0.28686632 4.10131207 0.28686632 4.10131207 -1 2 C-0.67 1.34 -0.34 0.68 0 0 Z " fill="#1C8D8F" transform="translate(527,621)"/>
<path d="M0 0 C3.60461572 1.66366879 6.88835863 3.52483073 10 6 C10.171875 8.63671875 10.171875 8.63671875 10 11 C8.55901389 10.23570339 7.12233946 9.46327445 5.6875 8.6875 C4.88699219 8.25824219 4.08648437 7.82898438 3.26171875 7.38671875 C1.16212728 6.09940446 -0.35447721 4.81593292 -2 3 C-1.34 3 -0.68 3 0 3 C0 2.01 0 1.02 0 0 Z " fill="#21EEE8" transform="translate(445,539)"/>
<path d="M0 0 C1.98 0.66 3.96 1.32 6 2 C6 2.66 6 3.32 6 4 C7.65 4 9.3 4 11 4 C11.66 5.32 12.32 6.64 13 8 C9.73285619 9.08904794 9.10970072 9.1550317 6 8 C2.75 6.1875 2.75 6.1875 0 4 C0 2.68 0 1.36 0 0 Z " fill="#145961" transform="translate(445,535)"/>
<path d="M0 0 C2.97 0.99 5.94 1.98 9 3 C9.33 4.65 9.66 6.3 10 8 C-2.375 8.495 -2.375 8.495 -15 9 C-15 8.34 -15 7.68 -15 7 C-7.74 6.67 -0.48 6.34 7 6 C4.69 4.35 2.38 2.7 0 1 C0 0.67 0 0.34 0 0 Z " fill="#1B9495" transform="translate(474,643)"/>
<path d="M0 0 C1.73152958 1.07955259 3.46011684 2.16382512 5.1875 3.25 C6.15042969 3.85328125 7.11335938 4.4565625 8.10546875 5.078125 C10.87405327 6.91637545 13.43957951 8.88425949 16 11 C13 12 13 12 10 11 C10 10.34 10 9.68 10 9 C7.77049185 7.84395874 5.72662755 6.91735252 3.3125 6.1875 C2.549375 5.795625 1.78625 5.40375 1 5 C0.35546875 2.42578125 0.35546875 2.42578125 0 0 Z " fill="#15575B" transform="translate(384,502)"/>
<path d="M0 0 C3.28771612 1.54399753 6.24733837 3.39621687 9.25 5.4375 C10.14203125 6.03433594 11.0340625 6.63117187 11.953125 7.24609375 C12.62859375 7.82488281 13.3040625 8.40367187 14 9 C14 9.99 14 10.98 14 12 C12.32332564 11.35891863 10.65910004 10.68528045 9 10 C7.96875 9.608125 6.9375 9.21625 5.875 8.8125 C1.98967022 6.36305297 1.45464148 4.28311102 0 0 Z " fill="#13585F" transform="translate(428,532)"/>
<path d="M0 0 C0.66 0 1.32 0 2 0 C2 0.66 2 1.32 2 2 C1.01 2.495 1.01 2.495 0 3 C0 3.928125 0 4.85625 0 5.8125 C0 12 0 12 -1 14 C-0.34 14 0.32 14 1 14 C1 14.66 1 15.32 1 16 C-1.375 15.3125 -1.375 15.3125 -4 14 C-5.3125 11.375 -5.3125 11.375 -6 9 C-5.01 9 -4.02 9 -3 9 C-2.87625 7.88625 -2.7525 6.7725 -2.625 5.625 C-2 2 -2 2 0 0 Z " fill="#186D71" transform="translate(493,622)"/>
<path d="M0 0 C6.875 3.75 6.875 3.75 8 6 C0.41 6 -7.18 6 -15 6 C-15 5.67 -15 5.34 -15 5 C-10.05 4.67 -5.1 4.34 0 4 C0 2.68 0 1.36 0 0 Z " fill="#22F1EA" transform="translate(474,644)"/>
<path d="M0 0 C1.125 1.5 1.125 1.5 2 4 C1.57598348 6.7773082 0.81108065 9.29639783 0 12 C-0.66 12 -1.32 12 -2 12 C-3.4783226 9.04335481 -3.06032783 6.25770263 -3 3 C-2.01 2.67 -1.02 2.34 0 2 C0 1.34 0 0.68 0 0 Z " fill="#146C78" transform="translate(410,493)"/>
<path d="M0 0 C1.1446875 0.2475 1.1446875 0.2475 2.3125 0.5 C5.03596236 1.09145396 5.03596236 1.09145396 8 1 C8 1.66 8 2.32 8 3 C8.66 3 9.32 3 10 3 C10 3.99 10 4.98 10 6 C10.5775 6.2475 11.155 6.495 11.75 6.75 C14.3002997 8.16683317 16.01785701 9.87627537 18 12 C14.20810923 10.63410386 11.15618622 8.89545351 7.875 6.5625 C7.02679688 5.96566406 6.17859375 5.36882812 5.3046875 4.75390625 C3.35690684 3.27161216 1.66837561 1.78287198 0 0 Z " fill="#146064" transform="translate(448,494)"/>
<path d="M0 0 C4.95 0.99 9.9 1.98 15 3 C14.67 4.32 14.34 5.64 14 7 C13.44441406 6.50886719 12.88882812 6.01773437 12.31640625 5.51171875 C9.57129825 3.72022331 8.17301823 3.68073681 4.9375 3.8125 C3.65166016 3.85310547 3.65166016 3.85310547 2.33984375 3.89453125 C1.56769531 3.92933594 0.79554688 3.96414063 0 4 C-0.99 4 -1.98 4 -3 4 C-3 3.34 -3 2.68 -3 2 C-2.01 2 -1.02 2 0 2 C0 1.34 0 0.68 0 0 Z " fill="#196C70" transform="translate(436,443)"/>
<path d="M0 0 C6.27 0.33 12.54 0.66 19 1 C19 1.33 19 1.66 19 2 C17.39318359 2.07347656 17.39318359 2.07347656 15.75390625 2.1484375 C14.35674361 2.22345294 12.9596095 2.2990013 11.5625 2.375 C10.85544922 2.4059375 10.14839844 2.436875 9.41992188 2.46875 C7.60760812 2.57280629 5.80182012 2.77919892 4 3 C3.67 3.66 3.34 4.32 3 5 C1.68 4.34 0.36 3.68 -1 3 C-0.67 2.01 -0.34 1.02 0 0 Z " fill="#20E6E1" transform="translate(459,617)"/>
<path d="M0 0 C1.98 0.99 1.98 0.99 4 2 C4 8.93 4 15.86 4 23 C3.01 22.67 2.02 22.34 1 22 C1.66 22 2.32 22 3 22 C3 15.73 3 9.46 3 3 C2.01 2.67 1.02 2.34 0 2 C0 1.34 0 0.68 0 0 Z " fill="#1C7676" transform="translate(432,584)"/>
<path d="M0 0 C0.33 0 0.66 0 1 0 C1.33 3.3 1.66 6.6 2 10 C1.34 10 0.68 10 0 10 C0.33 11.32 0.66 12.64 1 14 C-0.98 13.01 -2.96 12.02 -5 11 C-4.01 10.67 -3.02 10.34 -2 10 C-1.34 6.7 -0.68 3.4 0 0 Z " fill="#1BE2DD" transform="translate(486,625)"/>
<path d="M0 0 C0.66 0.33 1.32 0.66 2 1 C1.57847656 1.4846875 1.15695312 1.969375 0.72265625 2.46875 C-3.29937137 7.38981909 -4.77284549 10.6396736 -5 17 C-5.33 17 -5.66 17 -6 17 C-6.6896868 11.4825056 -6.44252427 7.95480298 -3 3.4375 C-2.02037689 2.27419755 -1.02697231 1.12172274 0 0 Z " fill="#1BD3D1" transform="translate(434,562)"/>
<path d="M0 0 C0.33 0 0.66 0 1 0 C1.36923077 5.41538462 1.36923077 5.41538462 -0.5 8.375 C-0.995 8.91125 -1.49 9.4475 -2 10 C-2.33 8.02 -2.66 6.04 -3 4 C-2.34 4 -1.68 4 -1 4 C-0.67 2.68 -0.34 1.36 0 0 Z M-3 8 C-4 9 -4 9 -7.5625 9.0625 C-8.696875 9.041875 -9.83125 9.02125 -11 9 C-11 8.67 -11 8.34 -11 8 C-5.25 6.875 -5.25 6.875 -3 8 Z " fill="#186E74" transform="translate(506,625)"/>
<path d="M0 0 C3.65316671 1.24976756 4.78065836 1.67098753 7 5 C2.25 6.125 2.25 6.125 0 5 C0 3.35 0 1.7 0 0 Z " fill="#2DF3F0" transform="translate(455,546)"/>
<path d="M0 0 C0.99 0.33 1.98 0.66 3 1 C2.34 1.66 1.68 2.32 1 3 C0.53993654 5.20250992 0.53993654 5.20250992 0.375 7.625 C0.30023438 8.44226563 0.22546875 9.25953125 0.1484375 10.1015625 C0.09945313 10.72804688 0.05046875 11.35453125 0 12 C-0.66 12 -1.32 12 -2 12 C-2.05395478 10.37536158 -2.09277195 8.75021459 -2.125 7.125 C-2.14820313 6.22007812 -2.17140625 5.31515625 -2.1953125 4.3828125 C-2 2 -2 2 0 0 Z " fill="#30EEE8" transform="translate(407,491)"/>
<path d="M0 0 C3.71599191 -0.20086443 4.77208445 -0.1519437 8 2 C8 2.99 8 3.98 8 5 C9.32 5.66 10.64 6.32 12 7 C8.38862487 7 7.25267809 6.07469918 4.3125 4.0625 C3.50425781 3.51722656 2.69601562 2.97195313 1.86328125 2.41015625 C1.24839844 1.94480469 0.63351562 1.47945313 0 1 C0 0.67 0 0.34 0 0 Z " fill="#115E61" transform="translate(478,479)"/>
<path d="M0 0 C1.32 0 2.64 0 4 0 C4 1.65 4 3.3 4 5 C2.35 5.33 0.7 5.66 -1 6 C-0.67 4.02 -0.34 2.04 0 0 Z " fill="#156169" transform="translate(422,497)"/>
<path d="M0 0 C3.68754757 0.49831724 5.60490662 1.10067643 8 4 C7.01 4 6.02 4 5 4 C4.67 4.99 4.34 5.98 4 7 C3.34 6.67 2.68 6.34 2 6 C2 4.68 2 3.36 2 2 C1.34 1.34 0.68 0.68 0 0 Z " fill="#1B8185" transform="translate(417,489)"/>
<path d="M0 0 C10.15317287 -0.63019694 10.15317287 -0.63019694 13.6875 2 C14.120625 2.66 14.55375 3.32 15 4 C12 4 12 4 9.75 3.0625 C6.51704848 1.81340509 3.43178604 1.40373953 0 1 C0 0.67 0 0.34 0 0 Z " fill="#166065" transform="translate(437,470)"/>
<path d="M0 0 C2.97 0.99 5.94 1.98 9 3 C9.33 4.65 9.66 6.3 10 8 C9.67 7.34 9.34 6.68 9 6 C8.236875 5.71125 7.47375 5.4225 6.6875 5.125 C3.71091157 3.87898624 2.13992716 2.37769684 0 0 Z " fill="#1A565B" transform="translate(474,643)"/>
<path d="M0 0 C0.66 0.33 1.32 0.66 2 1 C1.67 1.99 1.34 2.98 1 4 C1 4.99 1 5.98 1 7 C0.01 6.67 -0.98 6.34 -2 6 C-2.99 6.33 -3.98 6.66 -5 7 C-3.70700306 4.11562221 -2.34058637 2.12780579 0 0 Z " fill="#1B7E86" transform="translate(412,489)"/>
<path d="M0 0 C0.99 0 1.98 0 3 0 C2.67 1.65 2.34 3.3 2 5 C1.01 5.33 0.02 5.66 -1 6 C-1.625 4.125 -1.625 4.125 -2 2 C-1.34 1.34 -0.68 0.68 0 0 Z " fill="#15494E" transform="translate(441,455)"/>
<path d="M0 0 C3.43595166 1.52708963 6.11912454 3.59927045 9 6 C5.97580475 5.41196203 2.98241547 4.77321882 0 4 C0 2.68 0 1.36 0 0 Z " fill="#1B7C7E" transform="translate(491,544)"/>
<path d="M0 0 C0.33 0 0.66 0 1 0 C1 2.97 1 5.94 1 9 C-0.32 8.34 -1.64 7.68 -3 7 C-2.67 6.01 -2.34 5.02 -2 4 C-1.34 4 -0.68 4 0 4 C0 2.68 0 1.36 0 0 Z " fill="#147277" transform="translate(528,505)"/>
<path d="M0 0 C1.32 0.66 2.64 1.32 4 2 C3.01 2.495 3.01 2.495 2 3 C2.66 4.32 3.32 5.64 4 7 C1.53199953 5.84826645 -0.04783565 4.95216435 -2 3 C-1.34 3 -0.68 3 0 3 C0 2.01 0 1.02 0 0 Z " fill="#1BD3D2" transform="translate(445,539)"/>
<path d="M0 0 C2.97 1.65 5.94 3.3 9 5 C9 5.33 9 5.66 9 6 C7.35 6 5.7 6 4 6 C3.34 4.68 2.68 3.36 2 2 C1.34 2 0.68 2 0 2 C0 1.34 0 0.68 0 0 Z " fill="#156066" transform="translate(464,482)"/>
<path d="M0 0 C0.66 0.66 1.32 1.32 2 2 C1.625 4.125 1.625 4.125 1 6 C-0.32 6 -1.64 6 -3 6 C-2.67 4.68 -2.34 3.36 -2 2 C-1.34 2 -0.68 2 0 2 C0 1.34 0 0.68 0 0 Z " fill="#2CF6F3" transform="translate(433,575)"/>
<path d="M0 0 C2.88437779 1.29299694 4.87219421 2.65941363 7 5 C5.02 5.99 5.02 5.99 3 7 C2.01 4.69 1.02 2.38 0 0 Z " fill="#177477" transform="translate(428,532)"/>
<path d="M0 0 C0.99 0 1.98 0 3 0 C2.67 0.99 2.34 1.98 2 3 C-1.3 3 -4.6 3 -8 3 C-8 2.67 -8 2.34 -8 2 C-6.865625 1.855625 -5.73125 1.71125 -4.5625 1.5625 C-1.19222799 1.38828522 -1.19222799 1.38828522 0 0 Z " fill="#157A7E" transform="translate(471,532)"/>
</svg>
